<mxfile host="app.diagrams.net" modified="2023-05-21T22:00:44.251Z" agent="Mozilla/5.0 (Macintosh; Intel Mac OS X 10.15; rv:109.0) Gecko/20100101 Firefox/113.0" version="21.3.2" etag="bvONFBJHUjxs91fXo8JN">
  <diagram id="FgthV6q22Ep7vfD59T6V" name="Page-1">
    <mxGraphModel dx="1166" dy="614" grid="1" gridSize="10" guides="1" tooltips="1" connect="1" arrows="1" fold="1" page="0" pageScale="1" pageWidth="827" pageHeight="1169" math="0" shadow="0">
      <root>
        <mxCell id="0" />
        <mxCell id="1" parent="0" />
        <mxCell id="qOO70KsoDbuKheBEqoZG-1" value="Q" style="whiteSpace=wrap;html=1;aspect=fixed;fontSize=17;fontFamily=Verdana;fontStyle=1;fontColor=#AFB9C7;fillColor=#383E47;rounded=1;" parent="1" vertex="1">
          <mxGeometry x="150" y="137" width="40" height="40" as="geometry" />
        </mxCell>
        <mxCell id="qOO70KsoDbuKheBEqoZG-2" value="W" style="whiteSpace=wrap;html=1;aspect=fixed;fontSize=17;fontFamily=Verdana;fontStyle=1;fontColor=#AFB9C7;fillColor=#383E47;rounded=1;" parent="1" vertex="1">
          <mxGeometry x="190" y="112" width="40" height="40" as="geometry" />
        </mxCell>
        <mxCell id="qOO70KsoDbuKheBEqoZG-3" value="E" style="whiteSpace=wrap;html=1;aspect=fixed;fontSize=17;fontFamily=Verdana;fontStyle=1;fontColor=#AFB9C7;fillColor=#383E47;rounded=1;" parent="1" vertex="1">
          <mxGeometry x="230" y="97" width="40" height="40" as="geometry" />
        </mxCell>
        <mxCell id="qOO70KsoDbuKheBEqoZG-4" value="R" style="whiteSpace=wrap;html=1;aspect=fixed;fontSize=17;fontFamily=Verdana;fontStyle=1;fontColor=#AFB9C7;fillColor=#383E47;rounded=1;" parent="1" vertex="1">
          <mxGeometry x="270" y="112" width="40" height="40" as="geometry" />
        </mxCell>
        <mxCell id="qOO70KsoDbuKheBEqoZG-5" value="T" style="whiteSpace=wrap;html=1;aspect=fixed;fontSize=17;fontFamily=Verdana;fontStyle=1;fontColor=#AFB9C7;fillColor=#383E47;rounded=1;" parent="1" vertex="1">
          <mxGeometry x="310" y="120" width="40" height="40" as="geometry" />
        </mxCell>
        <mxCell id="qOO70KsoDbuKheBEqoZG-6" value="A" style="whiteSpace=wrap;html=1;aspect=fixed;fontSize=17;fontFamily=Verdana;fontStyle=1;fontColor=#AFB9C7;fillColor=#383E47;rounded=1;" parent="1" vertex="1">
          <mxGeometry x="150" y="177" width="40" height="40" as="geometry" />
        </mxCell>
        <mxCell id="qOO70KsoDbuKheBEqoZG-7" value="&lt;div&gt;S&lt;/div&gt;" style="whiteSpace=wrap;html=1;aspect=fixed;fontSize=17;fontFamily=Verdana;fontStyle=1;fontColor=#AFB9C7;fillColor=#383E47;rounded=1;" parent="1" vertex="1">
          <mxGeometry x="190" y="152" width="40" height="40" as="geometry" />
        </mxCell>
        <mxCell id="qOO70KsoDbuKheBEqoZG-8" value="D" style="whiteSpace=wrap;html=1;aspect=fixed;fontSize=17;fontFamily=Verdana;fontStyle=1;fontColor=#AFB9C7;fillColor=#383E47;rounded=1;" parent="1" vertex="1">
          <mxGeometry x="230" y="137" width="40" height="40" as="geometry" />
        </mxCell>
        <mxCell id="qOO70KsoDbuKheBEqoZG-9" value="F" style="whiteSpace=wrap;html=1;aspect=fixed;fontSize=17;fontFamily=Verdana;fontStyle=1;fontColor=#AFB9C7;fillColor=#383E47;rounded=1;" parent="1" vertex="1">
          <mxGeometry x="270" y="152" width="40" height="40" as="geometry" />
        </mxCell>
        <mxCell id="qOO70KsoDbuKheBEqoZG-10" value="G" style="whiteSpace=wrap;html=1;aspect=fixed;fontSize=17;fontFamily=Verdana;fontStyle=1;fontColor=#AFB9C7;fillColor=#383E47;rounded=1;" parent="1" vertex="1">
          <mxGeometry x="310" y="160" width="40" height="40" as="geometry" />
        </mxCell>
        <mxCell id="qOO70KsoDbuKheBEqoZG-11" value="Z" style="whiteSpace=wrap;html=1;aspect=fixed;fontSize=17;fontFamily=Verdana;fontStyle=1;fontColor=#AFB9C7;fillColor=#383E47;rounded=1;" parent="1" vertex="1">
          <mxGeometry x="150" y="217" width="40" height="40" as="geometry" />
        </mxCell>
        <mxCell id="qOO70KsoDbuKheBEqoZG-12" value="X" style="whiteSpace=wrap;html=1;aspect=fixed;fontSize=17;fontFamily=Verdana;fontStyle=1;fontColor=#AFB9C7;fillColor=#383E47;rounded=1;" parent="1" vertex="1">
          <mxGeometry x="190" y="192" width="40" height="40" as="geometry" />
        </mxCell>
        <mxCell id="qOO70KsoDbuKheBEqoZG-13" value="C" style="whiteSpace=wrap;html=1;aspect=fixed;fontSize=17;fontFamily=Verdana;fontStyle=1;fontColor=#AFB9C7;fillColor=#383E47;rounded=1;" parent="1" vertex="1">
          <mxGeometry x="230" y="177" width="40" height="40" as="geometry" />
        </mxCell>
        <mxCell id="qOO70KsoDbuKheBEqoZG-14" value="V" style="whiteSpace=wrap;html=1;aspect=fixed;fontSize=17;fontFamily=Verdana;fontStyle=1;fontColor=#AFB9C7;fillColor=#383E47;rounded=1;" parent="1" vertex="1">
          <mxGeometry x="270" y="192" width="40" height="40" as="geometry" />
        </mxCell>
        <mxCell id="qOO70KsoDbuKheBEqoZG-15" value="B" style="whiteSpace=wrap;html=1;aspect=fixed;fontSize=17;fontFamily=Verdana;fontStyle=1;fontColor=#AFB9C7;fillColor=#383E47;rounded=1;" parent="1" vertex="1">
          <mxGeometry x="310" y="200" width="40" height="40" as="geometry" />
        </mxCell>
        <mxCell id="qOO70KsoDbuKheBEqoZG-248" style="edgeStyle=orthogonalEdgeStyle;rounded=1;orthogonalLoop=1;jettySize=auto;html=1;exitX=0;exitY=1;exitDx=0;exitDy=0;entryX=0;entryY=0.5;entryDx=0;entryDy=0;fontFamily=Verdana;fontSize=14;fontColor=#9933FF;strokeColor=#A10627;" parent="1" source="qOO70KsoDbuKheBEqoZG-16" target="qOO70KsoDbuKheBEqoZG-140" edge="1">
          <mxGeometry relative="1" as="geometry">
            <Array as="points">
              <mxPoint x="120" y="280" />
              <mxPoint x="120" y="635" />
            </Array>
          </mxGeometry>
        </mxCell>
        <mxCell id="sQqRdyzeqLA1eZeQ2_-C-21" value="HOLD SOLO" style="edgeLabel;html=1;align=center;verticalAlign=middle;resizable=0;points=[];" vertex="1" connectable="0" parent="qOO70KsoDbuKheBEqoZG-248">
          <mxGeometry x="-0.7983" y="1" relative="1" as="geometry">
            <mxPoint x="26" y="349" as="offset" />
          </mxGeometry>
        </mxCell>
        <mxCell id="sQqRdyzeqLA1eZeQ2_-C-24" style="edgeStyle=orthogonalEdgeStyle;rounded=0;orthogonalLoop=1;jettySize=auto;html=1;entryX=0;entryY=0.5;entryDx=0;entryDy=0;strokeColor=#6e8ac0;" edge="1" parent="1" source="qOO70KsoDbuKheBEqoZG-16" target="qOO70KsoDbuKheBEqoZG-187">
          <mxGeometry relative="1" as="geometry">
            <Array as="points">
              <mxPoint x="100" y="266" />
              <mxPoint x="100" y="915" />
            </Array>
          </mxGeometry>
        </mxCell>
        <mxCell id="sQqRdyzeqLA1eZeQ2_-C-25" value="HOLD TOGETHER" style="edgeLabel;html=1;align=center;verticalAlign=middle;resizable=0;points=[];" vertex="1" connectable="0" parent="sQqRdyzeqLA1eZeQ2_-C-24">
          <mxGeometry x="0.8328" y="1" relative="1" as="geometry">
            <mxPoint y="-4" as="offset" />
          </mxGeometry>
        </mxCell>
        <mxCell id="qOO70KsoDbuKheBEqoZG-16" value="&lt;div&gt;LFT&lt;/div&gt;&lt;div&gt;Tab&lt;br&gt;&lt;/div&gt;" style="whiteSpace=wrap;html=1;aspect=fixed;rotation=15;fontSize=17;fontFamily=Verdana;fontStyle=1;fillColor=#a20025;strokeColor=#6F0000;fontColor=#ffffff;rounded=1;" parent="1" vertex="1">
          <mxGeometry x="290" y="246" width="40" height="40" as="geometry" />
        </mxCell>
        <mxCell id="qOO70KsoDbuKheBEqoZG-17" value="&lt;span style=&quot;font-family: &amp;quot;segoe ui emoji&amp;quot;, &amp;quot;apple color emoji&amp;quot;, &amp;quot;noto color emoji&amp;quot;; font-size: 30px;&quot;&gt;&lt;font style=&quot;font-size: 30px;&quot;&gt;⇧&lt;/font&gt;&lt;/span&gt;" style="whiteSpace=wrap;html=1;aspect=fixed;rotation=30;fontSize=30;fontFamily=Verdana;fontStyle=1;fontColor=#AFB9C7;fillColor=#383E47;rounded=1;" parent="1" vertex="1">
          <mxGeometry x="338" y="264" width="40" height="40" as="geometry" />
        </mxCell>
        <mxCell id="qOO70KsoDbuKheBEqoZG-18" value="Y" style="whiteSpace=wrap;html=1;aspect=fixed;fontSize=17;fontFamily=Verdana;fontStyle=1;fontColor=#AFB9C7;fillColor=#383E47;rounded=1;" parent="1" vertex="1">
          <mxGeometry x="478" y="120" width="40" height="40" as="geometry" />
        </mxCell>
        <mxCell id="qOO70KsoDbuKheBEqoZG-19" value="U" style="whiteSpace=wrap;html=1;aspect=fixed;fontSize=17;fontFamily=Verdana;fontStyle=1;fontColor=#AFB9C7;fillColor=#383E47;rounded=1;" parent="1" vertex="1">
          <mxGeometry x="518" y="112" width="40" height="40" as="geometry" />
        </mxCell>
        <mxCell id="qOO70KsoDbuKheBEqoZG-20" value="I" style="whiteSpace=wrap;html=1;aspect=fixed;fontSize=17;fontFamily=Verdana;fontStyle=1;fontColor=#AFB9C7;fillColor=#383E47;rounded=1;" parent="1" vertex="1">
          <mxGeometry x="558" y="97" width="40" height="40" as="geometry" />
        </mxCell>
        <mxCell id="qOO70KsoDbuKheBEqoZG-21" value="O" style="whiteSpace=wrap;html=1;aspect=fixed;fontSize=17;fontFamily=Verdana;fontStyle=1;fontColor=#AFB9C7;fillColor=#383E47;rounded=1;" parent="1" vertex="1">
          <mxGeometry x="598" y="112" width="40" height="40" as="geometry" />
        </mxCell>
        <mxCell id="qOO70KsoDbuKheBEqoZG-22" value="P" style="whiteSpace=wrap;html=1;aspect=fixed;fontSize=17;fontFamily=Verdana;fontStyle=1;fontColor=#AFB9C7;fillColor=#383E47;rounded=1;" parent="1" vertex="1">
          <mxGeometry x="638" y="137" width="40" height="40" as="geometry" />
        </mxCell>
        <mxCell id="qOO70KsoDbuKheBEqoZG-23" value="H" style="whiteSpace=wrap;html=1;aspect=fixed;fontSize=17;fontFamily=Verdana;fontStyle=1;fontColor=#AFB9C7;fillColor=#383E47;rounded=1;" parent="1" vertex="1">
          <mxGeometry x="478" y="160" width="40" height="40" as="geometry" />
        </mxCell>
        <mxCell id="qOO70KsoDbuKheBEqoZG-24" value="J" style="whiteSpace=wrap;html=1;aspect=fixed;fontSize=17;fontFamily=Verdana;fontStyle=1;fontColor=#AFB9C7;fillColor=#383E47;rounded=1;" parent="1" vertex="1">
          <mxGeometry x="518" y="152" width="40" height="40" as="geometry" />
        </mxCell>
        <mxCell id="qOO70KsoDbuKheBEqoZG-25" value="K" style="whiteSpace=wrap;html=1;aspect=fixed;fontSize=17;fontFamily=Verdana;fontStyle=1;fontColor=#AFB9C7;fillColor=#383E47;rounded=1;" parent="1" vertex="1">
          <mxGeometry x="558" y="137" width="40" height="40" as="geometry" />
        </mxCell>
        <mxCell id="qOO70KsoDbuKheBEqoZG-26" value="L" style="whiteSpace=wrap;html=1;aspect=fixed;fontSize=17;fontFamily=Verdana;fontStyle=1;fontColor=#AFB9C7;fillColor=#383E47;rounded=1;" parent="1" vertex="1">
          <mxGeometry x="598" y="152" width="40" height="40" as="geometry" />
        </mxCell>
        <mxCell id="qOO70KsoDbuKheBEqoZG-27" value=";:" style="whiteSpace=wrap;html=1;aspect=fixed;fontSize=17;fontFamily=Verdana;fontStyle=1;fontColor=#AFB9C7;fillColor=#383E47;rounded=1;" parent="1" vertex="1">
          <mxGeometry x="638" y="177" width="40" height="40" as="geometry" />
        </mxCell>
        <mxCell id="qOO70KsoDbuKheBEqoZG-28" value="N" style="whiteSpace=wrap;html=1;aspect=fixed;fontSize=17;fontFamily=Verdana;fontStyle=1;fontColor=#AFB9C7;fillColor=#383E47;rounded=1;" parent="1" vertex="1">
          <mxGeometry x="478" y="200" width="40" height="40" as="geometry" />
        </mxCell>
        <mxCell id="qOO70KsoDbuKheBEqoZG-29" value="M" style="whiteSpace=wrap;html=1;aspect=fixed;fontSize=17;fontFamily=Verdana;fontStyle=1;fontColor=#AFB9C7;fillColor=#383E47;rounded=1;" parent="1" vertex="1">
          <mxGeometry x="518" y="192" width="40" height="40" as="geometry" />
        </mxCell>
        <mxCell id="qOO70KsoDbuKheBEqoZG-30" value=",&amp;lt;" style="whiteSpace=wrap;html=1;aspect=fixed;fontSize=17;fontFamily=Verdana;fontStyle=1;fontColor=#AFB9C7;fillColor=#383E47;rounded=1;" parent="1" vertex="1">
          <mxGeometry x="558" y="177" width="40" height="40" as="geometry" />
        </mxCell>
        <mxCell id="qOO70KsoDbuKheBEqoZG-31" value=".&amp;gt;" style="whiteSpace=wrap;html=1;aspect=fixed;fontSize=17;fontFamily=Verdana;fontStyle=1;fontColor=#AFB9C7;fillColor=#383E47;rounded=1;" parent="1" vertex="1">
          <mxGeometry x="598" y="192" width="40" height="40" as="geometry" />
        </mxCell>
        <mxCell id="qOO70KsoDbuKheBEqoZG-32" value="↵" style="whiteSpace=wrap;html=1;aspect=fixed;fontSize=17;fontFamily=Verdana;fontStyle=1;fontColor=#AFB9C7;fillColor=#383E47;rounded=1;" parent="1" vertex="1">
          <mxGeometry x="638" y="217" width="40" height="40" as="geometry" />
        </mxCell>
        <mxCell id="qOO70KsoDbuKheBEqoZG-33" value="Spc" style="whiteSpace=wrap;html=1;aspect=fixed;rotation=-30;fontSize=17;fontFamily=Verdana;fontStyle=1;fontColor=#AFB9C7;fillColor=#383E47;rounded=1;" parent="1" vertex="1">
          <mxGeometry x="450" y="264" width="40" height="40" as="geometry" />
        </mxCell>
        <mxCell id="sQqRdyzeqLA1eZeQ2_-C-16" style="edgeStyle=orthogonalEdgeStyle;rounded=0;orthogonalLoop=1;jettySize=auto;html=1;exitX=1;exitY=1;exitDx=0;exitDy=0;entryX=1;entryY=0.5;entryDx=0;entryDy=0;strokeColor=#4c9fdd;" edge="1" parent="1" source="qOO70KsoDbuKheBEqoZG-34" target="qOO70KsoDbuKheBEqoZG-70">
          <mxGeometry relative="1" as="geometry">
            <Array as="points">
              <mxPoint x="720" y="280" />
              <mxPoint x="720" y="363" />
            </Array>
          </mxGeometry>
        </mxCell>
        <mxCell id="sQqRdyzeqLA1eZeQ2_-C-22" value="HOLD SOLO" style="edgeLabel;html=1;align=center;verticalAlign=middle;resizable=0;points=[];" vertex="1" connectable="0" parent="sQqRdyzeqLA1eZeQ2_-C-16">
          <mxGeometry x="-0.7683" y="2" relative="1" as="geometry">
            <mxPoint x="-16" y="82" as="offset" />
          </mxGeometry>
        </mxCell>
        <mxCell id="sQqRdyzeqLA1eZeQ2_-C-23" style="edgeStyle=orthogonalEdgeStyle;rounded=0;orthogonalLoop=1;jettySize=auto;html=1;exitX=1;exitY=0.75;exitDx=0;exitDy=0;entryX=1;entryY=0.5;entryDx=0;entryDy=0;strokeColor=#6e8ac0;" edge="1" parent="1" source="qOO70KsoDbuKheBEqoZG-34" target="qOO70KsoDbuKheBEqoZG-187">
          <mxGeometry relative="1" as="geometry">
            <Array as="points">
              <mxPoint x="740" y="271" />
              <mxPoint x="740" y="915" />
            </Array>
          </mxGeometry>
        </mxCell>
        <mxCell id="qOO70KsoDbuKheBEqoZG-34" value="&lt;div&gt;RT&lt;/div&gt;&lt;div&gt;⌫&lt;/div&gt;" style="whiteSpace=wrap;html=1;aspect=fixed;rotation=-15;fontSize=17;fontFamily=Verdana;fontStyle=1;fillColor=#1ba1e2;strokeColor=#006EAF;fontColor=#ffffff;rounded=1;" parent="1" vertex="1">
          <mxGeometry x="498" y="246" width="40" height="40" as="geometry" />
        </mxCell>
        <mxCell id="qOO70KsoDbuKheBEqoZG-35" value="&lt;b&gt;Base&lt;br&gt;&lt;/b&gt;" style="rounded=0;whiteSpace=wrap;html=1;fontFamily=Verdana;fontSize=17;fontColor=#AFB9C7;fillColor=#383E47;" parent="1" vertex="1">
          <mxGeometry x="308.5" y="67" width="210" height="30" as="geometry" />
        </mxCell>
        <mxCell id="qOO70KsoDbuKheBEqoZG-36" value="1" style="whiteSpace=wrap;html=1;aspect=fixed;fontSize=17;fontFamily=Verdana;fontStyle=1;fontColor=#AFB9C7;fillColor=#383E47;rounded=1;" parent="1" vertex="1">
          <mxGeometry x="150" y="418" width="40" height="40" as="geometry" />
        </mxCell>
        <mxCell id="qOO70KsoDbuKheBEqoZG-37" value="2" style="whiteSpace=wrap;html=1;aspect=fixed;fontSize=17;fontFamily=Verdana;fontStyle=1;fontColor=#AFB9C7;fillColor=#383E47;rounded=1;" parent="1" vertex="1">
          <mxGeometry x="190" y="393" width="40" height="40" as="geometry" />
        </mxCell>
        <mxCell id="qOO70KsoDbuKheBEqoZG-38" value="3" style="whiteSpace=wrap;html=1;aspect=fixed;fontSize=17;fontFamily=Verdana;fontStyle=1;fontColor=#AFB9C7;fillColor=#383E47;rounded=1;" parent="1" vertex="1">
          <mxGeometry x="230" y="378" width="40" height="40" as="geometry" />
        </mxCell>
        <mxCell id="qOO70KsoDbuKheBEqoZG-39" value="4" style="whiteSpace=wrap;html=1;aspect=fixed;fontSize=17;fontFamily=Verdana;fontStyle=1;fontColor=#AFB9C7;fillColor=#383E47;rounded=1;" parent="1" vertex="1">
          <mxGeometry x="270" y="393" width="40" height="40" as="geometry" />
        </mxCell>
        <mxCell id="qOO70KsoDbuKheBEqoZG-40" value="5" style="whiteSpace=wrap;html=1;aspect=fixed;fontSize=17;fontFamily=Verdana;fontStyle=1;fontColor=#AFB9C7;fillColor=#383E47;rounded=1;" parent="1" vertex="1">
          <mxGeometry x="310" y="401" width="40" height="40" as="geometry" />
        </mxCell>
        <mxCell id="qOO70KsoDbuKheBEqoZG-41" value="&lt;font style=&quot;font-size: 17px ; font-weight: normal&quot;&gt;✲&lt;span style=&quot;font-family: &amp;quot;segoe ui emoji&amp;quot;, &amp;quot;apple color emoji&amp;quot;, &amp;quot;noto color emoji&amp;quot;;&quot;&gt;&lt;font style=&quot;font-size: 17px&quot;&gt;⌫&lt;/font&gt;&lt;/span&gt;&lt;/font&gt;" style="whiteSpace=wrap;html=1;aspect=fixed;fontSize=17;fontFamily=Verdana;fontStyle=1;fontColor=#AFB9C7;fillColor=#383E47;rounded=1;" parent="1" vertex="1">
          <mxGeometry x="150" y="458" width="40" height="40" as="geometry" />
        </mxCell>
        <mxCell id="qOO70KsoDbuKheBEqoZG-42" value="⇪" style="whiteSpace=wrap;html=1;aspect=fixed;fontSize=17;fontFamily=Verdana;fontStyle=1;fontColor=#AFB9C7;fillColor=#383E47;rounded=1;" parent="1" vertex="1">
          <mxGeometry x="190" y="433" width="40" height="40" as="geometry" />
        </mxCell>
        <mxCell id="qOO70KsoDbuKheBEqoZG-43" value="&lt;font style=&quot;font-size: 11px;&quot;&gt;Prnt&lt;br&gt;Scrn&lt;/font&gt;" style="whiteSpace=wrap;html=1;aspect=fixed;fontSize=17;fontFamily=Verdana;fontStyle=1;fontColor=#AFB9C7;fillColor=#383E47;rounded=1;" parent="1" vertex="1">
          <mxGeometry x="230" y="418" width="40" height="40" as="geometry" />
        </mxCell>
        <mxCell id="qOO70KsoDbuKheBEqoZG-44" value="&lt;font style=&quot;font-size: 11px;&quot;&gt;Ins&lt;/font&gt;" style="whiteSpace=wrap;html=1;aspect=fixed;fontSize=17;fontFamily=Verdana;fontStyle=1;fontColor=#AFB9C7;fillColor=#383E47;rounded=1;" parent="1" vertex="1">
          <mxGeometry x="270" y="433" width="40" height="40" as="geometry" />
        </mxCell>
        <mxCell id="qOO70KsoDbuKheBEqoZG-45" value="" style="whiteSpace=wrap;html=1;aspect=fixed;fontSize=17;fontFamily=Verdana;fontStyle=1;fontColor=#AFB9C7;fillColor=#383E47;rounded=1;" parent="1" vertex="1">
          <mxGeometry x="310" y="441" width="40" height="40" as="geometry" />
        </mxCell>
        <mxCell id="qOO70KsoDbuKheBEqoZG-46" value="" style="whiteSpace=wrap;html=1;aspect=fixed;fontSize=17;fontFamily=Verdana;fontStyle=1;fontColor=#AFB9C7;fillColor=#383E47;rounded=1;" parent="1" vertex="1">
          <mxGeometry x="150" y="498" width="40" height="40" as="geometry" />
        </mxCell>
        <mxCell id="qOO70KsoDbuKheBEqoZG-47" value="" style="whiteSpace=wrap;html=1;aspect=fixed;fontSize=17;fontFamily=Verdana;fontStyle=1;fontColor=#AFB9C7;fillColor=#383E47;rounded=1;" parent="1" vertex="1">
          <mxGeometry x="190" y="473" width="40" height="40" as="geometry" />
        </mxCell>
        <mxCell id="qOO70KsoDbuKheBEqoZG-48" value="" style="whiteSpace=wrap;html=1;aspect=fixed;fontSize=17;fontFamily=Verdana;fontStyle=1;fontColor=#AFB9C7;fillColor=#383E47;rounded=1;" parent="1" vertex="1">
          <mxGeometry x="230" y="458" width="40" height="40" as="geometry" />
        </mxCell>
        <mxCell id="qOO70KsoDbuKheBEqoZG-49" value="" style="whiteSpace=wrap;html=1;aspect=fixed;fontSize=17;fontFamily=Verdana;fontStyle=1;fontColor=#AFB9C7;fillColor=#383E47;rounded=1;" parent="1" vertex="1">
          <mxGeometry x="270" y="473" width="40" height="40" as="geometry" />
        </mxCell>
        <mxCell id="qOO70KsoDbuKheBEqoZG-50" value="" style="whiteSpace=wrap;html=1;aspect=fixed;fontSize=17;fontFamily=Verdana;fontStyle=1;fontColor=#AFB9C7;fillColor=#383E47;rounded=1;" parent="1" vertex="1">
          <mxGeometry x="310" y="481" width="40" height="40" as="geometry" />
        </mxCell>
        <mxCell id="qOO70KsoDbuKheBEqoZG-51" value="" style="whiteSpace=wrap;html=1;aspect=fixed;rotation=15;fontSize=17;fontFamily=Verdana;fontStyle=1;fontColor=#ffffff;fillColor=#60a917;strokeColor=#2D7600;rounded=1;" parent="1" vertex="1">
          <mxGeometry x="290" y="527" width="40" height="40" as="geometry" />
        </mxCell>
        <mxCell id="qOO70KsoDbuKheBEqoZG-52" value="Esc" style="whiteSpace=wrap;html=1;aspect=fixed;rotation=30;fontSize=17;fontFamily=Verdana;fontStyle=1;fontColor=#ffffff;fillColor=#d80073;strokeColor=#A50040;rounded=1;" parent="1" vertex="1">
          <mxGeometry x="338" y="545" width="40" height="40" as="geometry" />
        </mxCell>
        <mxCell id="qOO70KsoDbuKheBEqoZG-53" value="6" style="whiteSpace=wrap;html=1;aspect=fixed;fontSize=17;fontFamily=Verdana;fontStyle=1;fontColor=#AFB9C7;fillColor=#383E47;rounded=1;" parent="1" vertex="1">
          <mxGeometry x="478" y="401" width="40" height="40" as="geometry" />
        </mxCell>
        <mxCell id="qOO70KsoDbuKheBEqoZG-54" value="7" style="whiteSpace=wrap;html=1;aspect=fixed;fontSize=17;fontFamily=Verdana;fontStyle=1;fontColor=#AFB9C7;fillColor=#383E47;rounded=1;" parent="1" vertex="1">
          <mxGeometry x="518" y="393" width="40" height="40" as="geometry" />
        </mxCell>
        <mxCell id="qOO70KsoDbuKheBEqoZG-55" value="8" style="whiteSpace=wrap;html=1;aspect=fixed;fontSize=17;fontFamily=Verdana;fontStyle=1;fontColor=#AFB9C7;fillColor=#383E47;rounded=1;" parent="1" vertex="1">
          <mxGeometry x="558" y="378" width="40" height="40" as="geometry" />
        </mxCell>
        <mxCell id="qOO70KsoDbuKheBEqoZG-56" value="9" style="whiteSpace=wrap;html=1;aspect=fixed;fontSize=17;fontFamily=Verdana;fontStyle=1;fontColor=#AFB9C7;fillColor=#383E47;rounded=1;" parent="1" vertex="1">
          <mxGeometry x="598" y="393" width="40" height="40" as="geometry" />
        </mxCell>
        <mxCell id="qOO70KsoDbuKheBEqoZG-57" value="0" style="whiteSpace=wrap;html=1;aspect=fixed;fontSize=17;fontFamily=Verdana;fontStyle=1;fontColor=#AFB9C7;fillColor=#383E47;rounded=1;" parent="1" vertex="1">
          <mxGeometry x="638" y="418" width="40" height="40" as="geometry" />
        </mxCell>
        <mxCell id="qOO70KsoDbuKheBEqoZG-58" value="" style="whiteSpace=wrap;html=1;aspect=fixed;fontSize=17;fontFamily=Verdana;fontStyle=1;fontColor=#AFB9C7;fillColor=#383E47;rounded=1;" parent="1" vertex="1">
          <mxGeometry x="478" y="441" width="40" height="40" as="geometry" />
        </mxCell>
        <mxCell id="qOO70KsoDbuKheBEqoZG-59" value="←" style="whiteSpace=wrap;html=1;aspect=fixed;fontSize=17;fontFamily=Verdana;fontStyle=1;fontColor=#AFB9C7;fillColor=#383E47;rounded=1;" parent="1" vertex="1">
          <mxGeometry x="518" y="433" width="40" height="40" as="geometry" />
        </mxCell>
        <mxCell id="qOO70KsoDbuKheBEqoZG-60" value="↓" style="whiteSpace=wrap;html=1;aspect=fixed;fontSize=17;fontFamily=Verdana;fontStyle=1;fontColor=#AFB9C7;fillColor=#383E47;rounded=1;" parent="1" vertex="1">
          <mxGeometry x="558" y="418" width="40" height="40" as="geometry" />
        </mxCell>
        <mxCell id="qOO70KsoDbuKheBEqoZG-61" value="↑" style="whiteSpace=wrap;html=1;aspect=fixed;fontSize=17;fontFamily=Verdana;fontStyle=1;fontColor=#AFB9C7;fillColor=#383E47;rounded=1;" parent="1" vertex="1">
          <mxGeometry x="598" y="433" width="40" height="40" as="geometry" />
        </mxCell>
        <mxCell id="qOO70KsoDbuKheBEqoZG-62" value="→" style="whiteSpace=wrap;html=1;aspect=fixed;fontSize=17;fontFamily=Verdana;fontStyle=1;fontColor=#AFB9C7;fillColor=#383E47;rounded=1;" parent="1" vertex="1">
          <mxGeometry x="638" y="458" width="40" height="40" as="geometry" />
        </mxCell>
        <mxCell id="qOO70KsoDbuKheBEqoZG-63" value="" style="whiteSpace=wrap;html=1;aspect=fixed;fontSize=17;fontFamily=Verdana;fontStyle=1;fontColor=#AFB9C7;fillColor=#383E47;rounded=1;" parent="1" vertex="1">
          <mxGeometry x="478" y="481" width="40" height="40" as="geometry" />
        </mxCell>
        <mxCell id="qOO70KsoDbuKheBEqoZG-64" value="&lt;font style=&quot;font-size: 11px;&quot;&gt;Home&lt;/font&gt;" style="whiteSpace=wrap;html=1;aspect=fixed;fontSize=17;fontFamily=Verdana;fontStyle=1;fontColor=#AFB9C7;fillColor=#383E47;rounded=1;" parent="1" vertex="1">
          <mxGeometry x="518" y="473" width="40" height="40" as="geometry" />
        </mxCell>
        <mxCell id="qOO70KsoDbuKheBEqoZG-65" value="&lt;div&gt;&lt;font style=&quot;font-size: 11px;&quot;&gt;Pag&lt;/font&gt;&lt;/div&gt;&lt;div&gt;&lt;font style=&quot;font-size: 11px;&quot;&gt;Dn&lt;br&gt;&lt;/font&gt;&lt;/div&gt;" style="whiteSpace=wrap;html=1;aspect=fixed;fontSize=17;fontFamily=Verdana;fontStyle=1;fontColor=#AFB9C7;fillColor=#383E47;rounded=1;" parent="1" vertex="1">
          <mxGeometry x="558" y="458" width="40" height="40" as="geometry" />
        </mxCell>
        <mxCell id="qOO70KsoDbuKheBEqoZG-66" value="&lt;div&gt;&lt;font style=&quot;font-size: 11px;&quot;&gt;Pag&lt;/font&gt;&lt;/div&gt;&lt;div&gt;&lt;font style=&quot;font-size: 11px;&quot;&gt;Up&lt;br&gt;&lt;/font&gt;&lt;/div&gt;" style="whiteSpace=wrap;html=1;aspect=fixed;fontSize=17;fontFamily=Verdana;fontStyle=1;fontColor=#AFB9C7;fillColor=#383E47;rounded=1;" parent="1" vertex="1">
          <mxGeometry x="598" y="473" width="40" height="40" as="geometry" />
        </mxCell>
        <mxCell id="qOO70KsoDbuKheBEqoZG-67" value="&lt;font style=&quot;font-size: 11px;&quot;&gt;End&lt;/font&gt;" style="whiteSpace=wrap;html=1;aspect=fixed;fontSize=17;fontFamily=Verdana;fontStyle=1;fontColor=#AFB9C7;fillColor=#383E47;rounded=1;" parent="1" vertex="1">
          <mxGeometry x="638" y="498" width="40" height="40" as="geometry" />
        </mxCell>
        <mxCell id="qOO70KsoDbuKheBEqoZG-68" value="" style="whiteSpace=wrap;html=1;aspect=fixed;rotation=-30;fontSize=17;fontFamily=Verdana;fontStyle=1;fontColor=#AFB9C7;fillColor=#383E47;rounded=1;" parent="1" vertex="1">
          <mxGeometry x="450" y="545" width="40" height="40" as="geometry" />
        </mxCell>
        <mxCell id="qOO70KsoDbuKheBEqoZG-69" value="" style="whiteSpace=wrap;html=1;aspect=fixed;rotation=-15;fontSize=17;fontFamily=Verdana;fontStyle=1;fontColor=#333333;fillColor=none;strokeColor=#666666;shadow=0;sketch=0;rounded=1;glass=0;dashed=1;" parent="1" vertex="1">
          <mxGeometry x="498" y="527" width="40" height="40" as="geometry" />
        </mxCell>
        <mxCell id="qOO70KsoDbuKheBEqoZG-70" value="&lt;b&gt;RT&lt;/b&gt;" style="rounded=0;whiteSpace=wrap;html=1;fontFamily=Verdana;fontSize=17;fillColor=#1ba1e2;strokeColor=#006EAF;fontStyle=0;fontColor=#ffffff;" parent="1" vertex="1">
          <mxGeometry x="308.5" y="348" width="210" height="30" as="geometry" />
        </mxCell>
        <mxCell id="qOO70KsoDbuKheBEqoZG-106" value="!" style="whiteSpace=wrap;html=1;aspect=fixed;fontSize=17;fontFamily=Verdana;fontStyle=1;fontColor=#AFB9C7;fillColor=#383E47;rounded=1;" parent="1" vertex="1">
          <mxGeometry x="150" y="690" width="40" height="40" as="geometry" />
        </mxCell>
        <mxCell id="qOO70KsoDbuKheBEqoZG-107" value="@" style="whiteSpace=wrap;html=1;aspect=fixed;fontSize=17;fontFamily=Verdana;fontStyle=1;fontColor=#AFB9C7;fillColor=#383E47;rounded=1;" parent="1" vertex="1">
          <mxGeometry x="190" y="665" width="40" height="40" as="geometry" />
        </mxCell>
        <mxCell id="qOO70KsoDbuKheBEqoZG-108" value="#" style="whiteSpace=wrap;html=1;aspect=fixed;fontSize=17;fontFamily=Verdana;fontStyle=1;fontColor=#AFB9C7;fillColor=#383E47;rounded=1;" parent="1" vertex="1">
          <mxGeometry x="230" y="650" width="40" height="40" as="geometry" />
        </mxCell>
        <mxCell id="qOO70KsoDbuKheBEqoZG-109" value="$" style="whiteSpace=wrap;html=1;aspect=fixed;fontSize=17;fontFamily=Verdana;fontStyle=1;fontColor=#AFB9C7;fillColor=#383E47;rounded=1;" parent="1" vertex="1">
          <mxGeometry x="270" y="665" width="40" height="40" as="geometry" />
        </mxCell>
        <mxCell id="qOO70KsoDbuKheBEqoZG-110" value="%" style="whiteSpace=wrap;html=1;aspect=fixed;fontSize=17;fontFamily=Verdana;fontStyle=1;fontColor=#AFB9C7;fillColor=#383E47;rounded=1;" parent="1" vertex="1">
          <mxGeometry x="310" y="673" width="40" height="40" as="geometry" />
        </mxCell>
        <mxCell id="qOO70KsoDbuKheBEqoZG-111" value="&quot;" style="whiteSpace=wrap;html=1;aspect=fixed;fontSize=17;fontFamily=Verdana;fontStyle=1;fillColor=#ffb86c;strokeColor=#d79b00;fontColor=#302316;rounded=1;" parent="1" vertex="1">
          <mxGeometry x="150" y="730" width="40" height="40" as="geometry" />
        </mxCell>
        <mxCell id="qOO70KsoDbuKheBEqoZG-112" value="[" style="whiteSpace=wrap;html=1;aspect=fixed;fontSize=17;fontFamily=Verdana;fontStyle=1;fillColor=#ffb86c;strokeColor=#d79b00;fontColor=#302316;rounded=1;" parent="1" vertex="1">
          <mxGeometry x="190" y="705" width="40" height="40" as="geometry" />
        </mxCell>
        <mxCell id="qOO70KsoDbuKheBEqoZG-113" value="{" style="whiteSpace=wrap;html=1;aspect=fixed;fontSize=17;fontFamily=Verdana;fontStyle=1;fillColor=#ffb86c;strokeColor=#d79b00;fontColor=#302316;rounded=1;" parent="1" vertex="1">
          <mxGeometry x="230" y="690" width="40" height="40" as="geometry" />
        </mxCell>
        <mxCell id="qOO70KsoDbuKheBEqoZG-114" value="(" style="whiteSpace=wrap;html=1;aspect=fixed;fontSize=17;fontFamily=Verdana;fontStyle=1;fillColor=#ffb86c;strokeColor=#d79b00;fontColor=#302316;rounded=1;" parent="1" vertex="1">
          <mxGeometry x="270" y="705" width="40" height="40" as="geometry" />
        </mxCell>
        <mxCell id="qOO70KsoDbuKheBEqoZG-115" value="" style="whiteSpace=wrap;html=1;aspect=fixed;fontSize=17;fontFamily=Verdana;fontStyle=1;fillColor=#ffb86c;strokeColor=#d79b00;fontColor=#302316;rounded=1;" parent="1" vertex="1">
          <mxGeometry x="310" y="713" width="40" height="40" as="geometry" />
        </mxCell>
        <mxCell id="qOO70KsoDbuKheBEqoZG-116" value="&#39;" style="whiteSpace=wrap;html=1;aspect=fixed;fontSize=17;fontFamily=Verdana;fontStyle=1;fontColor=#AFB9C7;fillColor=#383E47;rounded=1;" parent="1" vertex="1">
          <mxGeometry x="150" y="770" width="40" height="40" as="geometry" />
        </mxCell>
        <mxCell id="qOO70KsoDbuKheBEqoZG-117" value="]" style="whiteSpace=wrap;html=1;aspect=fixed;fontSize=17;fontFamily=Verdana;fontStyle=1;fontColor=#AFB9C7;fillColor=#383E47;rounded=1;" parent="1" vertex="1">
          <mxGeometry x="190" y="745" width="40" height="40" as="geometry" />
        </mxCell>
        <mxCell id="qOO70KsoDbuKheBEqoZG-118" value="}" style="whiteSpace=wrap;html=1;aspect=fixed;fontSize=17;fontFamily=Verdana;fontStyle=1;fontColor=#AFB9C7;fillColor=#383E47;rounded=1;" parent="1" vertex="1">
          <mxGeometry x="230" y="730" width="40" height="40" as="geometry" />
        </mxCell>
        <mxCell id="qOO70KsoDbuKheBEqoZG-119" value=")" style="whiteSpace=wrap;html=1;aspect=fixed;fontSize=17;fontFamily=Verdana;fontStyle=1;fontColor=#AFB9C7;fillColor=#383E47;rounded=1;" parent="1" vertex="1">
          <mxGeometry x="270" y="745" width="40" height="40" as="geometry" />
        </mxCell>
        <mxCell id="qOO70KsoDbuKheBEqoZG-120" value="" style="whiteSpace=wrap;html=1;aspect=fixed;fontSize=17;fontFamily=Verdana;fontStyle=1;fontColor=#AFB9C7;fillColor=#383E47;rounded=1;" parent="1" vertex="1">
          <mxGeometry x="310" y="753" width="40" height="40" as="geometry" />
        </mxCell>
        <mxCell id="qOO70KsoDbuKheBEqoZG-121" value="" style="whiteSpace=wrap;html=1;aspect=fixed;rotation=15;fontSize=17;fontFamily=Verdana;fontStyle=1;fontColor=#333333;fillColor=none;strokeColor=#666666;rounded=1;shadow=0;dashed=1;glass=0;sketch=0;" parent="1" vertex="1">
          <mxGeometry x="290" y="799" width="40" height="40" as="geometry" />
        </mxCell>
        <mxCell id="qOO70KsoDbuKheBEqoZG-122" value="" style="whiteSpace=wrap;html=1;aspect=fixed;rotation=30;fontSize=17;fontFamily=Verdana;fontStyle=1;fontColor=#AFB9C7;fillColor=#383E47;rounded=1;" parent="1" vertex="1">
          <mxGeometry x="338" y="817" width="40" height="40" as="geometry" />
        </mxCell>
        <mxCell id="qOO70KsoDbuKheBEqoZG-123" value="^" style="whiteSpace=wrap;html=1;aspect=fixed;fontSize=14;fontFamily=Verdana;fontStyle=1;fontColor=#AFB9C7;fillColor=#383E47;rounded=1;" parent="1" vertex="1">
          <mxGeometry x="478" y="673" width="40" height="40" as="geometry" />
        </mxCell>
        <mxCell id="qOO70KsoDbuKheBEqoZG-124" value="&amp;amp;" style="whiteSpace=wrap;html=1;aspect=fixed;fontSize=11;fontFamily=Verdana;fontStyle=1;fontColor=#AFB9C7;fillColor=#383E47;rounded=1;" parent="1" vertex="1">
          <mxGeometry x="518" y="665" width="40" height="40" as="geometry" />
        </mxCell>
        <mxCell id="qOO70KsoDbuKheBEqoZG-125" value="*" style="whiteSpace=wrap;html=1;aspect=fixed;fontSize=17;fontFamily=Verdana;fontStyle=1;fontColor=#AFB9C7;fillColor=#383E47;rounded=1;" parent="1" vertex="1">
          <mxGeometry x="558" y="650" width="40" height="40" as="geometry" />
        </mxCell>
        <mxCell id="qOO70KsoDbuKheBEqoZG-126" value="`" style="whiteSpace=wrap;html=1;aspect=fixed;fontSize=11;fontFamily=Verdana;fontStyle=1;fontColor=#AFB9C7;fillColor=#383E47;rounded=1;" parent="1" vertex="1">
          <mxGeometry x="598" y="665" width="40" height="40" as="geometry" />
        </mxCell>
        <mxCell id="qOO70KsoDbuKheBEqoZG-127" value="~" style="whiteSpace=wrap;html=1;aspect=fixed;fontSize=17;fontFamily=Verdana;fontStyle=1;fontColor=#AFB9C7;fillColor=#383E47;rounded=1;" parent="1" vertex="1">
          <mxGeometry x="638" y="690" width="40" height="40" as="geometry" />
        </mxCell>
        <mxCell id="qOO70KsoDbuKheBEqoZG-128" value="/" style="whiteSpace=wrap;html=1;aspect=fixed;fontSize=14;fontFamily=Verdana;fontStyle=1;fontColor=#AFB9C7;fillColor=#383E47;rounded=1;" parent="1" vertex="1">
          <mxGeometry x="478" y="713" width="40" height="40" as="geometry" />
        </mxCell>
        <mxCell id="qOO70KsoDbuKheBEqoZG-129" value="-" style="whiteSpace=wrap;html=1;aspect=fixed;fontSize=17;fontFamily=Verdana;fontStyle=1;fontColor=#AFB9C7;fillColor=#383E47;rounded=1;" parent="1" vertex="1">
          <mxGeometry x="518" y="705" width="40" height="40" as="geometry" />
        </mxCell>
        <mxCell id="qOO70KsoDbuKheBEqoZG-130" value="=" style="whiteSpace=wrap;html=1;aspect=fixed;fontSize=17;fontFamily=Verdana;fontStyle=1;fontColor=#AFB9C7;fillColor=#383E47;rounded=1;" parent="1" vertex="1">
          <mxGeometry x="558" y="690" width="40" height="40" as="geometry" />
        </mxCell>
        <mxCell id="qOO70KsoDbuKheBEqoZG-131" value=":" style="whiteSpace=wrap;html=1;aspect=fixed;fontSize=17;fontFamily=Verdana;fontStyle=1;fontColor=#AFB9C7;fillColor=#383E47;rounded=1;" parent="1" vertex="1">
          <mxGeometry x="598" y="705" width="40" height="40" as="geometry" />
        </mxCell>
        <mxCell id="qOO70KsoDbuKheBEqoZG-132" value=";" style="whiteSpace=wrap;html=1;aspect=fixed;fontSize=17;fontFamily=Verdana;fontStyle=1;fontColor=#AFB9C7;fillColor=#383E47;rounded=1;" parent="1" vertex="1">
          <mxGeometry x="638" y="730" width="40" height="40" as="geometry" />
        </mxCell>
        <mxCell id="qOO70KsoDbuKheBEqoZG-133" value="\" style="whiteSpace=wrap;html=1;aspect=fixed;fontSize=17;fontFamily=Verdana;fontStyle=1;fontColor=#AFB9C7;fillColor=#383E47;rounded=1;" parent="1" vertex="1">
          <mxGeometry x="478" y="753" width="40" height="40" as="geometry" />
        </mxCell>
        <mxCell id="qOO70KsoDbuKheBEqoZG-134" value="_" style="whiteSpace=wrap;html=1;aspect=fixed;fontSize=17;fontFamily=Verdana;fontStyle=1;fontColor=#AFB9C7;fillColor=#383E47;rounded=1;" parent="1" vertex="1">
          <mxGeometry x="518" y="745" width="40" height="40" as="geometry" />
        </mxCell>
        <mxCell id="qOO70KsoDbuKheBEqoZG-135" value="+" style="whiteSpace=wrap;html=1;aspect=fixed;fontSize=17;fontFamily=Verdana;fontStyle=1;fontColor=#AFB9C7;fillColor=#383E47;rounded=1;" parent="1" vertex="1">
          <mxGeometry x="558" y="730" width="40" height="40" as="geometry" />
        </mxCell>
        <mxCell id="qOO70KsoDbuKheBEqoZG-136" value="|" style="whiteSpace=wrap;html=1;aspect=fixed;fontSize=17;fontFamily=Verdana;fontStyle=1;fontColor=#AFB9C7;fillColor=#383E47;rounded=1;" parent="1" vertex="1">
          <mxGeometry x="598" y="745" width="40" height="40" as="geometry" />
        </mxCell>
        <mxCell id="qOO70KsoDbuKheBEqoZG-137" value="?" style="whiteSpace=wrap;html=1;aspect=fixed;fontSize=17;fontFamily=Verdana;fontStyle=1;fontColor=#AFB9C7;fillColor=#383E47;rounded=1;" parent="1" vertex="1">
          <mxGeometry x="638" y="770" width="40" height="40" as="geometry" />
        </mxCell>
        <mxCell id="qOO70KsoDbuKheBEqoZG-138" value="" style="whiteSpace=wrap;html=1;aspect=fixed;rotation=-30;fontSize=17;fontFamily=Verdana;fontStyle=1;fontColor=#AFB9C7;fillColor=#383E47;rounded=1;" parent="1" vertex="1">
          <mxGeometry x="450" y="817" width="40" height="40" as="geometry" />
        </mxCell>
        <mxCell id="qOO70KsoDbuKheBEqoZG-139" value="" style="whiteSpace=wrap;html=1;aspect=fixed;rotation=-15;fontSize=17;fontFamily=Verdana;fontStyle=1;fontColor=#ffffff;fillColor=#60a917;strokeColor=#2D7600;rounded=1;" parent="1" vertex="1">
          <mxGeometry x="498" y="799" width="40" height="40" as="geometry" />
        </mxCell>
        <mxCell id="qOO70KsoDbuKheBEqoZG-140" value="LFT" style="rounded=0;whiteSpace=wrap;html=1;fontFamily=Verdana;fontSize=17;fontStyle=1;fillColor=#a20025;strokeColor=#6F0000;fontColor=#ffffff;" parent="1" vertex="1">
          <mxGeometry x="308.5" y="620" width="210" height="30" as="geometry" />
        </mxCell>
        <mxCell id="qOO70KsoDbuKheBEqoZG-153" value="F1" style="whiteSpace=wrap;html=1;aspect=fixed;fontSize=17;fontFamily=Verdana;fontStyle=1;fontColor=#AFB9C7;fillColor=#383E47;rounded=1;" parent="1" vertex="1">
          <mxGeometry x="150" y="970" width="40" height="40" as="geometry" />
        </mxCell>
        <mxCell id="qOO70KsoDbuKheBEqoZG-154" value="F2" style="whiteSpace=wrap;html=1;aspect=fixed;fontSize=17;fontFamily=Verdana;fontStyle=1;fontColor=#AFB9C7;fillColor=#383E47;rounded=1;" parent="1" vertex="1">
          <mxGeometry x="190" y="945" width="40" height="40" as="geometry" />
        </mxCell>
        <mxCell id="qOO70KsoDbuKheBEqoZG-155" value="F3" style="whiteSpace=wrap;html=1;aspect=fixed;fontSize=17;fontFamily=Verdana;fontStyle=1;fontColor=#AFB9C7;fillColor=#383E47;rounded=1;" parent="1" vertex="1">
          <mxGeometry x="230" y="930" width="40" height="40" as="geometry" />
        </mxCell>
        <mxCell id="qOO70KsoDbuKheBEqoZG-156" value="F4" style="whiteSpace=wrap;html=1;aspect=fixed;fontSize=17;fontFamily=Verdana;fontStyle=1;fontColor=#AFB9C7;fillColor=#383E47;rounded=1;" parent="1" vertex="1">
          <mxGeometry x="270" y="945" width="40" height="40" as="geometry" />
        </mxCell>
        <mxCell id="qOO70KsoDbuKheBEqoZG-157" value="&lt;div&gt;&lt;font style=&quot;font-size: 14px;&quot;&gt;BT&lt;/font&gt;&lt;/div&gt;&lt;div&gt;&lt;font size=&quot;3&quot;&gt;0&lt;/font&gt;&lt;br&gt;&lt;/div&gt;" style="whiteSpace=wrap;html=1;aspect=fixed;fontSize=17;fontFamily=Verdana;fontStyle=1;fontColor=#000000;fillColor=#5C8CCA;rounded=1;" parent="1" vertex="1">
          <mxGeometry x="310" y="953" width="40" height="40" as="geometry" />
        </mxCell>
        <mxCell id="qOO70KsoDbuKheBEqoZG-163" value="F9" style="whiteSpace=wrap;html=1;aspect=fixed;fontSize=14;fontFamily=Verdana;fontStyle=1;fillColor=#5C8CCA;strokeColor=#456893;fontColor=#090e14;rounded=1;" parent="1" vertex="1">
          <mxGeometry x="150" y="1050" width="40" height="40" as="geometry" />
        </mxCell>
        <mxCell id="qOO70KsoDbuKheBEqoZG-164" value="F10" style="whiteSpace=wrap;html=1;aspect=fixed;fontSize=17;fontFamily=Verdana;fontStyle=1;fontColor=#AFB9C7;fillColor=#383E47;rounded=1;" parent="1" vertex="1">
          <mxGeometry x="190" y="1025" width="40" height="40" as="geometry" />
        </mxCell>
        <mxCell id="qOO70KsoDbuKheBEqoZG-165" value="F11" style="whiteSpace=wrap;html=1;aspect=fixed;fontSize=17;fontFamily=Verdana;fontStyle=1;fontColor=#AFB9C7;fillColor=#383E47;rounded=1;" parent="1" vertex="1">
          <mxGeometry x="230" y="1010" width="40" height="40" as="geometry" />
        </mxCell>
        <mxCell id="qOO70KsoDbuKheBEqoZG-166" value="F12" style="whiteSpace=wrap;html=1;aspect=fixed;fontSize=17;fontFamily=Verdana;fontStyle=1;fontColor=#AFB9C7;fillColor=#383E47;rounded=1;" parent="1" vertex="1">
          <mxGeometry x="270" y="1025" width="40" height="40" as="geometry" />
        </mxCell>
        <mxCell id="qOO70KsoDbuKheBEqoZG-167" value="BT&lt;br style=&quot;font-size: 14px;&quot;&gt;CLR" style="whiteSpace=wrap;html=1;aspect=fixed;fontSize=14;fontFamily=Verdana;fontStyle=1;fillColor=#5C8CCA;strokeColor=#456893;fontColor=#090e14;rounded=1;" parent="1" vertex="1">
          <mxGeometry x="310" y="1033" width="40" height="40" as="geometry" />
        </mxCell>
        <mxCell id="qOO70KsoDbuKheBEqoZG-170" value="&lt;div&gt;&lt;font style=&quot;font-size: 14px;&quot;&gt;BT&lt;/font&gt;&lt;/div&gt;&lt;div&gt;&lt;font style=&quot;font-size: 14px;&quot;&gt;2&lt;br&gt;&lt;/font&gt;&lt;/div&gt;" style="whiteSpace=wrap;html=1;aspect=fixed;fontSize=17;fontFamily=Verdana;fontStyle=1;fontColor=#000000;fillColor=#5C8CCA;rounded=1;" parent="1" vertex="1">
          <mxGeometry x="478" y="953" width="40" height="40" as="geometry" />
        </mxCell>
        <mxCell id="qOO70KsoDbuKheBEqoZG-171" value="&lt;div&gt;&lt;font style=&quot;font-size: 14px;&quot;&gt;TOG&lt;/font&gt;&lt;/div&gt;&lt;div&gt;&lt;font size=&quot;3&quot;&gt;OUT&lt;/font&gt;&lt;/div&gt;" style="whiteSpace=wrap;html=1;aspect=fixed;fontSize=17;fontFamily=Verdana;fontStyle=1;fontColor=#AFB9C7;fillColor=#383E47;rounded=1;" parent="1" vertex="1">
          <mxGeometry x="518" y="945" width="40" height="40" as="geometry" />
        </mxCell>
        <mxCell id="qOO70KsoDbuKheBEqoZG-172" value="OS" style="whiteSpace=wrap;html=1;aspect=fixed;fontSize=17;fontFamily=Verdana;fontStyle=1;fontColor=#AFB9C7;fillColor=#383E47;rounded=1;" parent="1" vertex="1">
          <mxGeometry x="558" y="930" width="40" height="40" as="geometry" />
        </mxCell>
        <mxCell id="qOO70KsoDbuKheBEqoZG-173" value="&lt;div&gt;&lt;font style=&quot;font-size: 14px;&quot;&gt;VOL&lt;/font&gt;&lt;/div&gt;&lt;div&gt;&lt;font style=&quot;font-size: 14px;&quot;&gt;MTE&lt;/font&gt;&lt;/div&gt;" style="whiteSpace=wrap;html=1;aspect=fixed;fontSize=17;fontFamily=Verdana;fontStyle=1;fontColor=#AFB9C7;fillColor=#383E47;rounded=1;" parent="1" vertex="1">
          <mxGeometry x="598" y="945" width="40" height="40" as="geometry" />
        </mxCell>
        <mxCell id="qOO70KsoDbuKheBEqoZG-174" value="&lt;div&gt;&lt;font style=&quot;font-size: 14px;&quot;&gt;NXT&lt;/font&gt;&lt;/div&gt;&lt;div&gt;&lt;font style=&quot;font-size: 14px;&quot;&gt;TRK&lt;br&gt;&lt;/font&gt;&lt;/div&gt;" style="whiteSpace=wrap;html=1;aspect=fixed;fontSize=17;fontFamily=Verdana;fontStyle=1;fontColor=#AFB9C7;fillColor=#383E47;rounded=1;" parent="1" vertex="1">
          <mxGeometry x="638" y="970" width="40" height="40" as="geometry" />
        </mxCell>
        <mxCell id="qOO70KsoDbuKheBEqoZG-175" value="&lt;div&gt;&lt;font style=&quot;font-size: 14px;&quot;&gt;BT&lt;/font&gt;&lt;/div&gt;&lt;div&gt;&lt;font size=&quot;3&quot;&gt;3&lt;/font&gt;&lt;br&gt;&lt;/div&gt;" style="whiteSpace=wrap;html=1;aspect=fixed;fontSize=17;fontFamily=Verdana;fontStyle=1;fontColor=#000000;fillColor=#5C8CCA;rounded=1;" parent="1" vertex="1">
          <mxGeometry x="478" y="993" width="40" height="40" as="geometry" />
        </mxCell>
        <mxCell id="qOO70KsoDbuKheBEqoZG-176" value="&lt;div&gt;&lt;font style=&quot;font-size: 14px;&quot;&gt;INC&lt;/font&gt;&lt;/div&gt;&lt;div&gt;&lt;font size=&quot;3&quot;&gt;BRT&lt;br&gt;&lt;/font&gt;&lt;/div&gt;" style="whiteSpace=wrap;html=1;aspect=fixed;fontSize=17;fontFamily=Verdana;fontStyle=1;fontColor=#AFB9C7;fillColor=#383E47;rounded=1;" parent="1" vertex="1">
          <mxGeometry x="518" y="985" width="40" height="40" as="geometry" />
        </mxCell>
        <mxCell id="qOO70KsoDbuKheBEqoZG-177" value="" style="whiteSpace=wrap;html=1;aspect=fixed;fontSize=14;fontFamily=Verdana;fontStyle=1;fontColor=#AFB9C7;fillColor=#383E47;rounded=1;" parent="1" vertex="1">
          <mxGeometry x="558" y="970" width="40" height="40" as="geometry" />
        </mxCell>
        <mxCell id="qOO70KsoDbuKheBEqoZG-178" value="&lt;div&gt;&lt;font style=&quot;font-size: 14px;&quot;&gt;VOL&lt;/font&gt;&lt;/div&gt;&lt;div&gt;&lt;font style=&quot;font-size: 14px;&quot;&gt;UP&lt;br&gt;&lt;/font&gt;&lt;/div&gt;" style="whiteSpace=wrap;html=1;aspect=fixed;fontSize=17;fontFamily=Verdana;fontStyle=1;fontColor=#AFB9C7;fillColor=#383E47;rounded=1;" parent="1" vertex="1">
          <mxGeometry x="598" y="985" width="40" height="40" as="geometry" />
        </mxCell>
        <mxCell id="qOO70KsoDbuKheBEqoZG-179" value="&lt;div&gt;&lt;font style=&quot;font-size: 14px;&quot;&gt;PSE&lt;/font&gt;&lt;/div&gt;&lt;div&gt;&lt;font style=&quot;font-size: 14px;&quot;&gt;TRK&lt;br&gt;&lt;/font&gt;&lt;/div&gt;" style="whiteSpace=wrap;html=1;aspect=fixed;fontSize=17;fontFamily=Verdana;fontStyle=1;fontColor=#AFB9C7;fillColor=#383E47;rounded=1;" parent="1" vertex="1">
          <mxGeometry x="638" y="1010" width="40" height="40" as="geometry" />
        </mxCell>
        <mxCell id="qOO70KsoDbuKheBEqoZG-180" value="BT&lt;br style=&quot;font-size: 14px;&quot;&gt;4" style="whiteSpace=wrap;html=1;aspect=fixed;fontSize=14;fontFamily=Verdana;fontStyle=1;fillColor=#5C8CCA;strokeColor=#456893;fontColor=#090e14;rounded=1;" parent="1" vertex="1">
          <mxGeometry x="478" y="1033" width="40" height="40" as="geometry" />
        </mxCell>
        <mxCell id="qOO70KsoDbuKheBEqoZG-181" value="&lt;div&gt;&lt;font style=&quot;font-size: 14px;&quot;&gt;DEC&lt;/font&gt;&lt;/div&gt;&lt;div&gt;&lt;font size=&quot;3&quot;&gt;BRT&lt;br&gt;&lt;/font&gt;&lt;/div&gt;" style="whiteSpace=wrap;html=1;aspect=fixed;fontSize=17;fontFamily=Verdana;fontStyle=1;fontColor=#AFB9C7;fillColor=#383E47;rounded=1;" parent="1" vertex="1">
          <mxGeometry x="518" y="1025" width="40" height="40" as="geometry" />
        </mxCell>
        <mxCell id="qOO70KsoDbuKheBEqoZG-182" value="" style="whiteSpace=wrap;html=1;aspect=fixed;fontSize=17;fontFamily=Verdana;fontStyle=1;fontColor=#AFB9C7;fillColor=#383E47;rounded=1;" parent="1" vertex="1">
          <mxGeometry x="558" y="1010" width="40" height="40" as="geometry" />
        </mxCell>
        <mxCell id="qOO70KsoDbuKheBEqoZG-183" value="&lt;div&gt;&lt;font style=&quot;font-size: 14px;&quot;&gt;VOL&lt;/font&gt;&lt;/div&gt;&lt;div&gt;&lt;font size=&quot;3&quot;&gt;DN&lt;br&gt;&lt;/font&gt;&lt;/div&gt;" style="whiteSpace=wrap;html=1;aspect=fixed;fontSize=17;fontFamily=Verdana;fontStyle=1;fontColor=#AFB9C7;fillColor=#383E47;rounded=1;" parent="1" vertex="1">
          <mxGeometry x="598" y="1025" width="40" height="40" as="geometry" />
        </mxCell>
        <mxCell id="qOO70KsoDbuKheBEqoZG-184" value="&lt;div&gt;&lt;font style=&quot;font-size: 14px;&quot;&gt;PRV&lt;/font&gt;&lt;/div&gt;&lt;div&gt;&lt;font style=&quot;font-size: 14px;&quot;&gt;TRK&lt;br&gt;&lt;/font&gt;&lt;/div&gt;" style="whiteSpace=wrap;html=1;aspect=fixed;fontSize=17;fontFamily=Verdana;fontStyle=1;fontColor=#AFB9C7;fillColor=#383E47;rounded=1;" parent="1" vertex="1">
          <mxGeometry x="638" y="1050" width="40" height="40" as="geometry" />
        </mxCell>
        <mxCell id="qOO70KsoDbuKheBEqoZG-185" value="" style="whiteSpace=wrap;html=1;aspect=fixed;rotation=-30;fontSize=17;fontFamily=Verdana;fontStyle=1;fontColor=#AFB9C7;fillColor=#383E47;rounded=1;" parent="1" vertex="1">
          <mxGeometry x="450" y="1097" width="40" height="40" as="geometry" />
        </mxCell>
        <mxCell id="qOO70KsoDbuKheBEqoZG-186" value="" style="whiteSpace=wrap;html=1;aspect=fixed;rotation=-15;fontSize=17;fontFamily=Verdana;fontStyle=1;fontColor=#333333;fillColor=none;strokeColor=#666666;rounded=1;shadow=0;dashed=1;glass=0;sketch=0;" parent="1" vertex="1">
          <mxGeometry x="498" y="1079" width="40" height="40" as="geometry" />
        </mxCell>
        <mxCell id="qOO70KsoDbuKheBEqoZG-187" value="TRI" style="rounded=0;whiteSpace=wrap;html=1;fontFamily=Verdana;fontSize=17;fontStyle=1;fillColor=#678bc5;strokeColor=#2D7600;fontColor=#ffffff;" parent="1" vertex="1">
          <mxGeometry x="308.5" y="900" width="210" height="30" as="geometry" />
        </mxCell>
        <mxCell id="qOO70KsoDbuKheBEqoZG-190" value="F5" style="whiteSpace=wrap;html=1;aspect=fixed;fontSize=17;fontFamily=Verdana;fontStyle=1;fillColor=#ffb86c;strokeColor=#d79b00;fontColor=#302316;rounded=1;" parent="1" vertex="1">
          <mxGeometry x="150" y="1010" width="40" height="40" as="geometry" />
        </mxCell>
        <mxCell id="qOO70KsoDbuKheBEqoZG-191" value="F6" style="whiteSpace=wrap;html=1;aspect=fixed;fontSize=17;fontFamily=Verdana;fontStyle=1;fillColor=#ffb86c;strokeColor=#d79b00;fontColor=#302316;rounded=1;" parent="1" vertex="1">
          <mxGeometry x="190" y="985" width="40" height="40" as="geometry" />
        </mxCell>
        <mxCell id="qOO70KsoDbuKheBEqoZG-192" value="F7" style="whiteSpace=wrap;html=1;aspect=fixed;fontSize=17;fontFamily=Verdana;fontStyle=1;fillColor=#ffb86c;strokeColor=#d79b00;fontColor=#302316;rounded=1;" parent="1" vertex="1">
          <mxGeometry x="230" y="970" width="40" height="40" as="geometry" />
        </mxCell>
        <mxCell id="qOO70KsoDbuKheBEqoZG-193" value="F8" style="whiteSpace=wrap;html=1;aspect=fixed;fontSize=17;fontFamily=Verdana;fontStyle=1;fillColor=#ffb86c;strokeColor=#d79b00;fontColor=#302316;rounded=1;" parent="1" vertex="1">
          <mxGeometry x="270" y="985" width="40" height="40" as="geometry" />
        </mxCell>
        <mxCell id="qOO70KsoDbuKheBEqoZG-194" value="&lt;div&gt;&lt;font style=&quot;font-size: 14px;&quot;&gt;BT&lt;/font&gt;&lt;/div&gt;&lt;div&gt;&lt;font size=&quot;3&quot;&gt;1&lt;/font&gt;&lt;br&gt;&lt;/div&gt;" style="whiteSpace=wrap;html=1;aspect=fixed;fontSize=17;fontFamily=Verdana;fontStyle=1;fillColor=#5C8CCA;strokeColor=#d79b00;fontColor=#302316;rounded=1;" parent="1" vertex="1">
          <mxGeometry x="310" y="993" width="40" height="40" as="geometry" />
        </mxCell>
        <mxCell id="qOO70KsoDbuKheBEqoZG-242" style="edgeStyle=orthogonalEdgeStyle;rounded=1;orthogonalLoop=1;jettySize=auto;html=1;exitX=0.5;exitY=0;exitDx=0;exitDy=0;entryX=0;entryY=0.5;entryDx=0;entryDy=0;fontFamily=Verdana;fontSize=14;fontColor=#3399FF;strokeColor=#3399FF;" parent="1" source="qOO70KsoDbuKheBEqoZG-231" target="qOO70KsoDbuKheBEqoZG-180" edge="1">
          <mxGeometry relative="1" as="geometry" />
        </mxCell>
        <mxCell id="sQqRdyzeqLA1eZeQ2_-C-1" style="edgeStyle=orthogonalEdgeStyle;rounded=0;orthogonalLoop=1;jettySize=auto;html=1;entryX=0;entryY=0.5;entryDx=0;entryDy=0;fontColor=#5197f8;strokeColor=#5197f8;" edge="1" parent="1" source="qOO70KsoDbuKheBEqoZG-231" target="qOO70KsoDbuKheBEqoZG-175">
          <mxGeometry relative="1" as="geometry" />
        </mxCell>
        <mxCell id="sQqRdyzeqLA1eZeQ2_-C-2" style="edgeStyle=orthogonalEdgeStyle;rounded=0;orthogonalLoop=1;jettySize=auto;html=1;entryX=1;entryY=0.5;entryDx=0;entryDy=0;fontColor=#5197f8;strokeColor=#5197f8;" edge="1" parent="1" source="qOO70KsoDbuKheBEqoZG-231" target="qOO70KsoDbuKheBEqoZG-194">
          <mxGeometry relative="1" as="geometry" />
        </mxCell>
        <mxCell id="sQqRdyzeqLA1eZeQ2_-C-3" style="edgeStyle=orthogonalEdgeStyle;rounded=0;orthogonalLoop=1;jettySize=auto;html=1;entryX=0;entryY=0.5;entryDx=0;entryDy=0;fontColor=#5197f8;strokeColor=#5197f8;" edge="1" parent="1" source="qOO70KsoDbuKheBEqoZG-231" target="qOO70KsoDbuKheBEqoZG-170">
          <mxGeometry relative="1" as="geometry" />
        </mxCell>
        <mxCell id="sQqRdyzeqLA1eZeQ2_-C-17" style="edgeStyle=orthogonalEdgeStyle;rounded=0;orthogonalLoop=1;jettySize=auto;html=1;entryX=1;entryY=0.5;entryDx=0;entryDy=0;strokeColor=#4ba5f8;" edge="1" parent="1" source="qOO70KsoDbuKheBEqoZG-231" target="qOO70KsoDbuKheBEqoZG-157">
          <mxGeometry relative="1" as="geometry" />
        </mxCell>
        <mxCell id="qOO70KsoDbuKheBEqoZG-231" value="Select Bluetooth Profile" style="text;html=1;strokeColor=none;fillColor=none;align=center;verticalAlign=middle;whiteSpace=wrap;rounded=0;shadow=0;glass=0;sketch=0;fontFamily=Verdana;fontSize=14;fontColor=#3399FF;" parent="1" vertex="1">
          <mxGeometry x="328.5" y="1160" width="169.5" height="20" as="geometry" />
        </mxCell>
        <mxCell id="qOO70KsoDbuKheBEqoZG-235" style="edgeStyle=orthogonalEdgeStyle;rounded=1;orthogonalLoop=1;jettySize=auto;html=1;exitX=0.5;exitY=1;exitDx=0;exitDy=0;fontFamily=Verdana;fontSize=14;fontColor=#3399FF;strokeColor=#FF8000;" parent="1" edge="1">
          <mxGeometry relative="1" as="geometry">
            <mxPoint x="210" y="1180" as="sourcePoint" />
            <mxPoint x="210" y="1180" as="targetPoint" />
          </mxGeometry>
        </mxCell>
        <mxCell id="qOO70KsoDbuKheBEqoZG-292" value="" style="whiteSpace=wrap;html=1;aspect=fixed;rotation=15;fontSize=17;fontFamily=Verdana;fontStyle=1;fontColor=#333333;fillColor=none;strokeColor=#666666;rounded=1;shadow=0;dashed=1;glass=0;sketch=0;" parent="1" vertex="1">
          <mxGeometry x="290" y="1079" width="40" height="40" as="geometry" />
        </mxCell>
        <mxCell id="qOO70KsoDbuKheBEqoZG-293" value="" style="whiteSpace=wrap;html=1;aspect=fixed;rotation=30;fontSize=17;fontFamily=Verdana;fontStyle=1;fontColor=#AFB9C7;fillColor=#383E47;rounded=1;" parent="1" vertex="1">
          <mxGeometry x="338" y="1097" width="40" height="40" as="geometry" />
        </mxCell>
        <mxCell id="sQqRdyzeqLA1eZeQ2_-C-5" value="F9" style="whiteSpace=wrap;html=1;aspect=fixed;fontSize=17;fontFamily=Verdana;fontStyle=1;fontColor=#AFB9C7;fillColor=#383E47;rounded=1;" vertex="1" parent="1">
          <mxGeometry x="150" y="1050" width="40" height="40" as="geometry" />
        </mxCell>
        <mxCell id="sQqRdyzeqLA1eZeQ2_-C-6" value="F8" style="whiteSpace=wrap;html=1;aspect=fixed;fontSize=17;fontFamily=Verdana;fontStyle=1;fontColor=#AFB9C7;fillColor=#383E47;rounded=1;" vertex="1" parent="1">
          <mxGeometry x="270" y="985" width="40" height="40" as="geometry" />
        </mxCell>
        <mxCell id="sQqRdyzeqLA1eZeQ2_-C-7" value="F7" style="whiteSpace=wrap;html=1;aspect=fixed;fontSize=17;fontFamily=Verdana;fontStyle=1;fontColor=#AFB9C7;fillColor=#383E47;rounded=1;" vertex="1" parent="1">
          <mxGeometry x="228.5" y="970" width="40" height="40" as="geometry" />
        </mxCell>
        <mxCell id="sQqRdyzeqLA1eZeQ2_-C-8" value="F6" style="whiteSpace=wrap;html=1;aspect=fixed;fontSize=17;fontFamily=Verdana;fontStyle=1;fontColor=#AFB9C7;fillColor=#383E47;rounded=1;" vertex="1" parent="1">
          <mxGeometry x="190" y="985" width="40" height="40" as="geometry" />
        </mxCell>
        <mxCell id="sQqRdyzeqLA1eZeQ2_-C-9" value="F5" style="whiteSpace=wrap;html=1;aspect=fixed;fontSize=17;fontFamily=Verdana;fontStyle=1;fontColor=#AFB9C7;fillColor=#383E47;rounded=1;" vertex="1" parent="1">
          <mxGeometry x="150" y="1010" width="40" height="40" as="geometry" />
        </mxCell>
        <mxCell id="sQqRdyzeqLA1eZeQ2_-C-10" value="&quot;" style="whiteSpace=wrap;html=1;aspect=fixed;fontSize=17;fontFamily=Verdana;fontStyle=1;fontColor=#AFB9C7;fillColor=#383E47;rounded=1;" vertex="1" parent="1">
          <mxGeometry x="150" y="730" width="40" height="40" as="geometry" />
        </mxCell>
        <mxCell id="sQqRdyzeqLA1eZeQ2_-C-11" value="[" style="whiteSpace=wrap;html=1;aspect=fixed;fontSize=17;fontFamily=Verdana;fontStyle=1;fontColor=#AFB9C7;fillColor=#383E47;rounded=1;" vertex="1" parent="1">
          <mxGeometry x="190" y="705" width="40" height="40" as="geometry" />
        </mxCell>
        <mxCell id="sQqRdyzeqLA1eZeQ2_-C-12" value="}" style="whiteSpace=wrap;html=1;aspect=fixed;fontSize=17;fontFamily=Verdana;fontStyle=1;fontColor=#AFB9C7;fillColor=#383E47;rounded=1;" vertex="1" parent="1">
          <mxGeometry x="230" y="690" width="40" height="40" as="geometry" />
        </mxCell>
        <mxCell id="sQqRdyzeqLA1eZeQ2_-C-13" value="(" style="whiteSpace=wrap;html=1;aspect=fixed;fontSize=17;fontFamily=Verdana;fontStyle=1;fontColor=#AFB9C7;fillColor=#383E47;rounded=1;" vertex="1" parent="1">
          <mxGeometry x="270" y="705" width="40" height="40" as="geometry" />
        </mxCell>
        <mxCell id="sQqRdyzeqLA1eZeQ2_-C-14" value="" style="whiteSpace=wrap;html=1;aspect=fixed;fontSize=17;fontFamily=Verdana;fontStyle=1;fontColor=#AFB9C7;fillColor=#383E47;rounded=1;" vertex="1" parent="1">
          <mxGeometry x="310" y="713" width="40" height="40" as="geometry" />
        </mxCell>
        <mxCell id="sQqRdyzeqLA1eZeQ2_-C-18" value="Esc" style="whiteSpace=wrap;html=1;aspect=fixed;fontSize=17;fontFamily=Verdana;fontStyle=1;fontColor=#AFB9C7;fillColor=#383E47;rounded=1;rotation=35;" vertex="1" parent="1">
          <mxGeometry x="338" y="545" width="40" height="40" as="geometry" />
        </mxCell>
        <mxCell id="sQqRdyzeqLA1eZeQ2_-C-19" value="" style="whiteSpace=wrap;html=1;aspect=fixed;fontSize=17;fontFamily=Verdana;fontStyle=1;fontColor=#AFB9C7;fillColor=#383E47;rounded=1;rotation=15;" vertex="1" parent="1">
          <mxGeometry x="290" y="527" width="40" height="40" as="geometry" />
        </mxCell>
        <mxCell id="sQqRdyzeqLA1eZeQ2_-C-20" value="" style="whiteSpace=wrap;html=1;aspect=fixed;rotation=-20;fontSize=17;fontFamily=Verdana;fontStyle=1;fontColor=#AFB9C7;fillColor=#383E47;rounded=1;" vertex="1" parent="1">
          <mxGeometry x="498" y="799" width="40" height="40" as="geometry" />
        </mxCell>
        <mxCell id="sQqRdyzeqLA1eZeQ2_-C-26" value="HOLD TOGETHER" style="edgeLabel;html=1;align=center;verticalAlign=middle;resizable=0;points=[];" vertex="1" connectable="0" parent="1">
          <mxGeometry x="609.9955236082017" y="910" as="geometry" />
        </mxCell>
      </root>
    </mxGraphModel>
  </diagram>
</mxfile>
